<svg width="43" height="40" viewBox="0 0 43 40" fill="none" xmlns="http://www.w3.org/2000/svg">
<path d="M17.9167 3C8.02226 3 0 10.4626 0 19.6667C0 28.8708 8.02226 36.3333 17.9167 36.3333C27.8111 36.3333 35.8333 28.8708 35.8333 19.6667C35.8333 10.4626 27.8111 3 17.9167 3Z" fill="#47556C"/>
<path d="M28.6667 13.9326C27.8759 14.2597 26.8768 14.5657 25.9792 14.6666C26.8908 14.1637 28.3378 13.1155 28.6667 12.1666C27.8147 12.6321 26.2732 13.1302 25.2689 13.3092C24.4658 12.5182 23.3215 12.1666 22.053 12.1666C19.6157 12.1666 17.9167 14.0872 17.9167 16.3333V18C14.3334 18 10.8393 15.4609 8.66622 13C8.28304 13.6005 8.06783 14.3037 8.06783 15.0475C8.06783 16.5628 9.56555 18.1009 10.7501 18.8333C10.0275 18.8121 8.65747 18.2994 8.06258 18C8.06258 18.013 8.06258 18.0293 8.06258 18.0472C8.06258 20.0198 9.5498 21.3593 11.5672 21.7321C11.1997 21.8265 10.7501 22.1666 9.02315 22.1666C9.58305 23.7796 12.4035 24.6308 14.3334 24.6666C12.8234 25.7555 10.1307 26.3333 8.06258 26.3333C7.70565 26.3333 7.51143 26.3512 7.16675 26.3138C9.11764 27.4645 11.8436 28 14.3334 28C22.4467 28 26.8751 22.235 26.8751 16.859C26.8751 16.6816 26.8681 16.0892 26.8593 15.9166C27.7254 15.3486 28.0771 14.7529 28.6667 13.9326Z" fill="white"/>
</svg>
