<svg width="32" height="32" viewBox="0 0 32 32" fill="none" xmlns="http://www.w3.org/2000/svg">
<path d="M27.5199 0.880005H4.47988C2.49268 0.880005 0.879883 2.4928 0.879883 4.48V27.52C0.879883 29.5072 2.49268 31.12 4.47988 31.12H27.5199C29.5071 31.12 31.1199 29.5072 31.1199 27.52V4.48C31.1199 2.4928 29.5071 0.880005 27.5199 0.880005ZM9.22468 25.0648L12.9399 21.3424C11.6943 20.9968 10.5063 20.4568 9.42628 19.7008C8.77828 19.2472 8.61268 18.3544 9.06628 17.6992C9.34708 17.296 9.79348 17.08 10.2543 17.08C10.5351 17.08 10.8231 17.1664 11.0751 17.3392C12.5223 18.3472 14.2287 18.88 15.9999 18.88C17.7783 18.88 19.4847 18.3472 20.9391 17.332C21.1839 17.1592 21.4719 17.0728 21.7599 17.0728C22.2135 17.0728 22.6599 17.2888 22.9407 17.692C23.3943 18.34 23.2359 19.24 22.5807 19.6936C21.5007 20.4496 20.3127 20.9968 19.0599 21.3424L22.7751 25.0648C23.3439 25.6264 23.3439 26.5336 22.7751 27.0952C22.4943 27.376 22.1271 27.52 21.7599 27.52C21.3927 27.52 21.0255 27.376 20.7447 27.0952L15.9999 22.3576L11.2551 27.0952C10.9743 27.376 10.6071 27.52 10.2399 27.52C9.87268 27.52 9.50548 27.376 9.22468 27.0952C8.65588 26.5336 8.65588 25.6264 9.22468 25.0648ZM15.9999 16C12.8175 16 10.2399 13.4224 10.2399 10.24C10.2399 7.0576 12.8175 4.48 15.9999 4.48C19.1823 4.48 21.7599 7.0576 21.7599 10.24C21.7599 13.4224 19.1823 16 15.9999 16Z" fill="#47556C"/>
</svg>
