<svg width="68" height="68" viewBox="0 0 68 68" fill="none" xmlns="http://www.w3.org/2000/svg">
<path d="M64.6 10.2H56.6667V7.93333C56.664 7.03242 56.3049 6.16918 55.6679 5.53214C55.0308 4.8951 54.1676 4.53602 53.2667 4.53333H45.3333V1.13333C45.3333 0.832755 45.2139 0.544487 45.0014 0.331946C44.7888 0.119404 44.5006 0 44.2 0H1.13333C0.832755 0 0.544487 0.119404 0.331946 0.331946C0.119404 0.544487 0 0.832755 0 1.13333V64.6C0 64.9006 0.119404 65.1889 0.331946 65.4014C0.544487 65.6139 0.832755 65.7333 1.13333 65.7333H35.3373C35.5726 66.3938 36.0056 66.9657 36.5775 67.3713C37.1493 67.7769 37.8323 67.9964 38.5333 68H45.3333C46.2342 67.9973 47.0975 67.6382 47.7345 67.0012C48.3716 66.3642 48.7306 65.5009 48.7333 64.6V45.3333H49.8667C50.1672 45.3333 50.4555 45.2139 50.6681 45.0014C50.8806 44.7888 51 44.5006 51 44.2V39.6667C51 39.3661 50.8806 39.0778 50.6681 38.8653C50.4555 38.6527 50.1672 38.5333 49.8667 38.5333H45.3333V34H64.6C65.5009 33.9973 66.3642 33.6382 67.0012 33.0012C67.6382 32.3642 67.9973 31.5009 68 30.6V13.6C67.9973 12.6991 67.6382 11.8358 67.0012 11.1988C66.3642 10.5618 65.5009 10.2027 64.6 10.2ZM56.6667 19.2667V17H61.2V27.2H45.3333V22.6667H53.2667C54.1676 22.664 55.0308 22.3049 55.6679 21.6679C56.3049 21.0308 56.664 20.1676 56.6667 19.2667ZM53.2667 6.8C53.5672 6.8 53.8555 6.9194 54.0681 7.13195C54.2806 7.34449 54.4 7.63275 54.4 7.93333V19.2667C54.4 19.5672 54.2806 19.8555 54.0681 20.0681C53.8555 20.2806 53.5672 20.4 53.2667 20.4H12.4667C12.1661 20.4 11.8778 20.2806 11.6653 20.0681C11.4527 19.8555 11.3333 19.5672 11.3333 19.2667V7.93333C11.3333 7.63275 11.4527 7.34449 11.6653 7.13195C11.8778 6.9194 12.1661 6.8 12.4667 6.8H53.2667ZM28.3333 23.8C27.4324 23.8027 26.5692 24.1618 25.9321 24.7988C25.2951 25.4359 24.936 26.2991 24.9333 27.2V35.1333C24.9333 35.4339 24.8139 35.7222 24.6014 35.9347C24.3888 36.1473 24.1006 36.2667 23.8 36.2667C23.4994 36.2667 23.2112 36.1473 22.9986 35.9347C22.7861 35.7222 22.6667 35.4339 22.6667 35.1333V31.7333C22.6667 30.8316 22.3085 29.9668 21.6708 29.3292C21.0332 28.6915 20.1684 28.3333 19.2667 28.3333C18.3649 28.3333 17.5001 28.6915 16.8625 29.3292C16.2249 29.9668 15.8667 30.8316 15.8667 31.7333V44.2C15.8667 44.5006 15.7473 44.7888 15.5347 45.0014C15.3222 45.2139 15.0339 45.3333 14.7333 45.3333C14.4328 45.3333 14.1445 45.2139 13.9319 45.0014C13.7194 44.7888 13.6 44.5006 13.6 44.2V22.6667H34V31.7333C34 32.0339 33.8806 32.3222 33.6681 32.5347C33.4555 32.7473 33.1672 32.8667 32.8667 32.8667C32.5661 32.8667 32.2778 32.7473 32.0653 32.5347C31.8527 32.3222 31.7333 32.0339 31.7333 31.7333V27.2C31.7306 26.2991 31.3716 25.4359 30.7345 24.7988C30.0975 24.1618 29.2342 23.8027 28.3333 23.8ZM35.1333 63.4667H2.26667V2.26667H43.0667V4.53333H12.4667C11.5658 4.53602 10.7025 4.8951 10.0655 5.53214C9.42843 6.16918 9.06936 7.03242 9.06667 7.93333V10.2H7.93333C7.33273 10.2018 6.75723 10.4412 6.33254 10.8659C5.90785 11.2906 5.66846 11.8661 5.66667 12.4667V14.7333C5.66846 15.3339 5.90785 15.9094 6.33254 16.3341C6.75723 16.7588 7.33273 16.9982 7.93333 17H9.06667V19.2667C9.07028 19.9677 9.28981 20.6507 9.69539 21.2225C10.101 21.7944 10.6729 22.2274 11.3333 22.4627V44.2C11.3333 45.1017 11.6915 45.9665 12.3292 46.6042C12.9668 47.2418 13.8316 47.6 14.7333 47.6C15.6351 47.6 16.4999 47.2418 17.1375 46.6042C17.7751 45.9665 18.1333 45.1017 18.1333 44.2V31.7333C18.1333 31.4328 18.2527 31.1445 18.4653 30.9319C18.6778 30.7194 18.9661 30.6 19.2667 30.6C19.5672 30.6 19.8555 30.7194 20.0681 30.9319C20.2806 31.1445 20.4 31.4328 20.4 31.7333V35.1333C20.4 36.0351 20.7582 36.8999 21.3958 37.5375C22.0335 38.1751 22.8983 38.5333 23.8 38.5333C24.7017 38.5333 25.5665 38.1751 26.2042 37.5375C26.8418 36.8999 27.2 36.0351 27.2 35.1333V27.2C27.2 26.8994 27.3194 26.6112 27.5319 26.3986C27.7445 26.1861 28.0328 26.0667 28.3333 26.0667C28.6339 26.0667 28.9222 26.1861 29.1347 26.3986C29.3473 26.6112 29.4667 26.8994 29.4667 27.2V31.7333C29.4667 32.6351 29.8249 33.4999 30.4625 34.1375C31.1001 34.7751 31.9649 35.1333 32.8667 35.1333C33.7684 35.1333 34.6332 34.7751 35.2708 34.1375C35.9085 33.4999 36.2667 32.6351 36.2667 31.7333V22.6667H43.0667V27.2H41.9333C41.0324 27.2027 40.1692 27.5618 39.5321 28.1988C38.8951 28.8358 38.536 29.6991 38.5333 30.6V38.5333H34C33.6994 38.5333 33.4112 38.6527 33.1986 38.8653C32.9861 39.0778 32.8667 39.3661 32.8667 39.6667V44.2C32.8667 44.5006 32.9861 44.7888 33.1986 45.0014C33.4112 45.2139 33.6994 45.3333 34 45.3333H35.1333V63.4667ZM9.06667 12.4667V14.7333H7.93333V12.4667H9.06667ZM46.4667 64.6C46.4667 64.9006 46.3473 65.1889 46.1347 65.4014C45.9222 65.6139 45.6339 65.7333 45.3333 65.7333H38.5333C38.2328 65.7333 37.9445 65.6139 37.7319 65.4014C37.5194 65.1889 37.4 64.9006 37.4 64.6V45.3333H46.4667V64.6ZM48.7333 40.8V43.0667H35.1333V40.8H48.7333ZM65.7333 30.6C65.7333 30.9006 65.6139 31.1888 65.4014 31.4014C65.1889 31.6139 64.9006 31.7333 64.6 31.7333H45.3333C44.7327 31.7351 44.1572 31.9745 43.7325 32.3992C43.3078 32.8239 43.0685 33.3994 43.0667 34V38.5333H40.8V30.6C40.8 30.2994 40.9194 30.0112 41.1319 29.7986C41.3445 29.5861 41.6328 29.4667 41.9333 29.4667H61.2C61.8006 29.4649 62.3761 29.2255 62.8008 28.8008C63.2255 28.3761 63.4649 27.8006 63.4667 27.2V17C63.4649 16.3994 63.2255 15.8239 62.8008 15.3992C62.3761 14.9745 61.8006 14.7351 61.2 14.7333H56.6667V12.4667H64.6C64.9006 12.4667 65.1889 12.5861 65.4014 12.7986C65.6139 13.0112 65.7333 13.2994 65.7333 13.6V30.6Z" fill="#63A63E"/>
<path d="M14.7333 49.8667C14.0608 49.8667 13.4035 50.0661 12.8443 50.4397C12.2852 50.8133 11.8494 51.3443 11.5921 51.9656C11.3348 52.5868 11.2674 53.2705 11.3986 53.93C11.5298 54.5895 11.8536 55.1954 12.3291 55.6709C12.8046 56.1464 13.4104 56.4702 14.07 56.6014C14.7295 56.7326 15.4131 56.6652 16.0344 56.4079C16.6557 56.1506 17.1867 55.7148 17.5603 55.1556C17.9339 54.5965 18.1333 53.9392 18.1333 53.2667C18.1333 52.365 17.7751 51.5002 17.1374 50.8625C16.4998 50.2249 15.635 49.8667 14.7333 49.8667ZM14.7333 54.4C14.5091 54.4 14.29 54.3336 14.1036 54.209C13.9173 54.0845 13.772 53.9075 13.6862 53.7004C13.6004 53.4933 13.578 53.2654 13.6217 53.0456C13.6655 52.8258 13.7734 52.6238 13.9319 52.4653C14.0904 52.3068 14.2923 52.1989 14.5122 52.1551C14.732 52.1114 14.9599 52.1339 15.167 52.2196C15.3741 52.3054 15.5511 52.4507 15.6756 52.6371C15.8001 52.8234 15.8666 53.0425 15.8666 53.2667C15.8666 53.5673 15.7472 53.8555 15.5347 54.0681C15.3221 54.2806 15.0339 54.4 14.7333 54.4Z" fill="#63A63E"/>
<path d="M23.8 40.8C23.1276 40.8 22.4702 40.9995 21.9111 41.3731C21.352 41.7467 20.9162 42.2777 20.6588 42.8989C20.4015 43.5202 20.3342 44.2038 20.4654 44.8634C20.5965 45.5229 20.9204 46.1287 21.3959 46.6042C21.8714 47.0797 22.4772 47.4035 23.1367 47.5347C23.7963 47.6659 24.4799 47.5986 25.1011 47.3412C25.7224 47.0839 26.2534 46.6481 26.627 46.089C27.0006 45.5299 27.2 44.8725 27.2 44.2001C27.2 43.2983 26.8418 42.4335 26.2042 41.7959C25.5666 41.1583 24.7018 40.8 23.8 40.8ZM23.8 45.3334C23.5759 45.3334 23.3568 45.2669 23.1704 45.1424C22.984 45.0179 22.8387 44.8408 22.753 44.6338C22.6672 44.4267 22.6447 44.1988 22.6885 43.9789C22.7322 43.7591 22.8401 43.5572 22.9986 43.3987C23.1571 43.2402 23.3591 43.1322 23.5789 43.0885C23.7988 43.0448 24.0266 43.0672 24.2337 43.153C24.4408 43.2388 24.6178 43.384 24.7424 43.5704C24.8669 43.7568 24.9334 43.9759 24.9334 44.2001C24.9334 44.5006 24.814 44.7889 24.6014 45.0014C24.3889 45.214 24.1006 45.3334 23.8 45.3334Z" fill="#63A63E"/>
<path d="M13.6 10.2C13.6 10.5006 13.7194 10.7888 13.9319 11.0014C14.1445 11.2139 14.4327 11.3333 14.7333 11.3333H45.3333C45.6339 11.3333 45.9222 11.2139 46.1347 11.0014C46.3472 10.7888 46.4666 10.5006 46.4666 10.2C46.4666 9.89941 46.3472 9.61114 46.1347 9.3986C45.9222 9.18606 45.6339 9.06665 45.3333 9.06665H14.7333C14.4327 9.06665 14.1445 9.18606 13.9319 9.3986C13.7194 9.61114 13.6 9.89941 13.6 10.2Z" fill="#63A63E"/>
<path d="M49.8666 11.3333H50.9999C51.3005 11.3333 51.5888 11.2139 51.8013 11.0014C52.0139 10.7888 52.1333 10.5006 52.1333 10.2C52.1333 9.89941 52.0139 9.61114 51.8013 9.3986C51.5888 9.18606 51.3005 9.06665 50.9999 9.06665H49.8666C49.566 9.06665 49.2778 9.18606 49.0652 9.3986C48.8527 9.61114 48.7333 9.89941 48.7333 10.2C48.7333 10.5006 48.8527 10.7888 49.0652 11.0014C49.2778 11.2139 49.566 11.3333 49.8666 11.3333Z" fill="#63A63E"/>
</svg>
